<?xml version="1.0" encoding="UTF-8"?>
<!DOCTYPE svg PUBLIC "-//W3C//DTD SVG 1.1//EN" "http://www.w3.org/Graphics/SVG/1.1/DTD/svg11.dtd">
<svg version="1.1" xmlns="http://www.w3.org/2000/svg" xmlns:xlink="http://www.w3.org/1999/xlink" x="0" y="0" width="502" height="502" viewBox="0, 0, 502, 502">
  <g id="Layer_1">
    <g>
      <g>
        <path d="M415.672,327.328 C415.672,418.274 341.946,492 251,492 C160.054,492 86.329,418.274 86.329,327.328 C86.329,236.382 251,10 251,10 C251,10 415.672,236.383 415.672,327.328 z" fill="#E91E63"/>
        <path d="M251,502 C154.686,502 76.329,423.643 76.329,327.329 C76.329,234.202 236.112,13.469 242.913,4.118 C244.795,1.531 247.801,0 251,0 C254.199,0 257.205,1.531 259.087,4.118 C265.889,13.469 425.671,234.201 425.671,327.329 C425.671,423.643 347.314,502 251,502 z M251,27.23 C237.009,47.078 206.925,90.687 177.147,139.856 C124.275,227.159 96.328,291.986 96.328,327.329 C96.329,412.615 165.714,482 251,482 C336.286,482 405.671,412.615 405.671,327.329 C405.671,291.97 377.7,227.103 324.782,139.741 C295.015,90.597 264.977,47.057 251,27.23 z" fill="#000000"/>
      </g>
      <path d="M246.849,461.742 C241.326,461.742 236.849,457.265 236.849,451.742 C236.849,446.219 241.326,441.742 246.849,441.742 C287.594,441.742 325.402,421.452 347.984,387.466 C351.041,382.866 357.248,381.615 361.847,384.671 C366.447,387.728 367.698,393.935 364.642,398.534 C338.343,438.113 294.308,461.742 246.849,461.742 z" fill="#000000"/>
      <path d="M374.842,360.002 C374.099,360.002 373.344,359.919 372.589,359.745 C367.207,358.506 363.849,353.138 365.088,347.756 C367.14,338.846 368.18,329.645 368.18,320.41 C368.18,314.887 372.657,310.41 378.18,310.41 C383.703,310.41 388.18,314.887 388.18,320.41 C388.18,331.154 386.968,341.864 384.578,352.244 C383.513,356.871 379.396,360.002 374.842,360.002 z" fill="#000000"/>
      <g>
        <path d="M339.5,284.5 L285,284.5 L285,230 L217,230 L217,284.5 L162.5,284.5 L162.5,352.5 L217,352.5 L217,407 L285,407 L285,352.5 L339.5,352.5 z" fill="#EBD2B4"/>
        <path d="M285,417 L217,417 C211.477,417 207,412.523 207,407 L207,362.5 L162.5,362.5 C156.977,362.5 152.5,358.023 152.5,352.5 L152.5,284.5 C152.5,278.977 156.977,274.5 162.5,274.5 L207,274.5 L207,230 C207,224.477 211.477,220 217,220 L285,220 C290.523,220 295,224.477 295,230 L295,274.5 L339.5,274.5 C345.023,274.5 349.5,278.977 349.5,284.5 L349.5,352.5 C349.5,358.023 345.023,362.5 339.5,362.5 L295,362.5 L295,407 C295,412.523 290.523,417 285,417 z M227,397 L275,397 L275,352.5 C275,346.977 279.477,342.5 285,342.5 L329.5,342.5 L329.5,294.5 L285,294.5 C279.477,294.5 275,290.023 275,284.5 L275,240 L227,240 L227,284.5 C227,290.023 222.523,294.5 217,294.5 L172.5,294.5 L172.5,342.5 L217,342.5 C222.523,342.5 227,346.977 227,352.5 L227,397 z" fill="#000000"/>
      </g>
    </g>
  </g>
</svg>
