<?xml version="1.0" encoding="UTF-8"?>
<!DOCTYPE svg PUBLIC "-//W3C//DTD SVG 1.1//EN" "http://www.w3.org/Graphics/SVG/1.1/DTD/svg11.dtd">
<svg version="1.1" xmlns="http://www.w3.org/2000/svg" xmlns:xlink="http://www.w3.org/1999/xlink" x="0" y="0" width="100" height="100" viewBox="0, 0, 100, 100">
  <g id="Layer_1">
    <path d="M50.054,1.215 C23.059,1.215 1.269,23.005 1.269,50 C1.269,51.735 1.377,53.361 1.486,54.987 C1.594,55.746 1.702,56.505 1.811,57.264 C1.811,57.48 1.919,57.806 1.919,58.022 C2.028,58.565 2.136,58.998 2.136,59.54 C2.244,59.865 2.244,60.191 2.353,60.516 C2.461,60.95 2.57,61.383 2.678,61.817 C2.786,62.142 2.895,62.467 3.003,62.793 C3.112,63.226 3.22,63.551 3.329,63.985 C3.437,64.31 3.545,64.744 3.654,65.069 C3.762,65.394 3.871,65.828 3.979,66.153 C4.087,66.479 4.196,66.912 4.413,67.237 C4.521,67.563 4.629,67.888 4.738,68.213 C4.846,68.647 5.063,68.972 5.172,69.406 C5.28,69.623 5.388,69.948 5.497,70.165 C5.714,70.598 5.93,71.032 6.039,71.466 C6.147,71.682 6.256,71.791 6.364,72.008 C7.557,74.393 8.966,76.669 10.484,78.838 C10.484,78.838 10.484,78.838 10.484,78.838 C10.917,79.38 11.243,79.922 11.676,80.355 C11.676,80.464 11.785,80.464 11.785,80.572 C12.218,81.006 12.544,81.548 12.977,81.981 C13.086,82.09 13.086,82.09 13.194,82.198 C13.628,82.632 14.061,83.174 14.495,83.608 C14.603,83.716 14.603,83.716 14.712,83.824 C15.145,84.258 15.579,84.692 16.013,85.125 C16.013,85.125 16.013,85.125 16.121,85.234 C16.121,85.234 16.121,85.234 16.121,85.234 C24.902,93.582 36.828,98.785 50.054,98.785 C63.28,98.785 75.097,93.582 83.878,85.125 C83.878,85.125 83.878,85.125 83.878,85.125 C83.878,85.125 83.878,85.125 83.987,85.017 C84.421,84.583 84.854,84.15 85.288,83.716 C85.396,83.608 85.396,83.608 85.505,83.499 C85.938,83.066 86.372,82.632 86.806,82.09 C86.914,81.981 86.914,81.981 87.022,81.873 C87.456,81.439 87.781,80.897 88.215,80.464 C88.215,80.355 88.323,80.355 88.323,80.247 C88.757,79.705 89.082,79.271 89.516,78.729 C89.516,78.729 89.516,78.729 89.516,78.729 C91.034,76.561 92.443,74.284 93.636,72.008 C93.744,71.791 93.852,71.682 93.961,71.466 C94.178,71.032 94.394,70.598 94.503,70.165 C94.611,69.948 94.72,69.623 94.828,69.406 C95.045,68.972 95.153,68.647 95.262,68.213 C95.37,67.888 95.479,67.563 95.587,67.237 C95.695,66.912 95.912,66.479 96.021,66.153 C96.129,65.828 96.237,65.394 96.346,65.069 C96.454,64.744 96.563,64.31 96.671,63.985 C96.779,63.551 96.888,63.226 96.996,62.793 C97.105,62.467 97.213,62.142 97.322,61.817 C97.43,61.383 97.538,60.95 97.647,60.516 C97.755,60.191 97.755,59.865 97.864,59.54 C97.972,58.998 98.08,58.565 98.08,58.022 C98.08,57.806 98.189,57.48 98.189,57.264 C98.297,56.505 98.406,55.746 98.514,54.987 C98.731,53.361 98.731,51.735 98.731,50 C98.839,23.005 76.94,1.215 50.054,1.215 z M50.054,92.281 C38.562,92.281 28.155,87.727 20.566,80.247 C23.276,77.862 26.42,76.127 29.889,75.043 L37.587,72.766 C40.189,72.008 41.598,69.189 40.731,66.587 C40.514,66.045 40.297,65.611 39.863,65.178 L34.66,59.323 C30.865,54.987 29.131,49.241 29.998,43.495 L31.19,35.581 C32.058,30.269 34.985,25.607 39.43,22.572 C45.826,18.235 54.174,18.127 60.678,22.355 L60.787,22.355 C65.665,25.499 68.918,30.594 69.568,36.34 L70.435,43.929 C71.086,49.458 69.351,54.879 65.665,58.998 L60.136,65.178 C59.811,65.611 59.486,66.153 59.269,66.587 C58.402,69.189 59.811,72.008 62.413,72.766 L70.11,75.043 C73.579,76.127 76.832,77.862 79.434,80.247 C71.845,87.727 61.437,92.281 50.054,92.281 z" fill="#989998"/>
  </g>
</svg>
