<?xml version="1.0" encoding="UTF-8"?>
<!DOCTYPE svg PUBLIC "-//W3C//DTD SVG 1.1//EN" "http://www.w3.org/Graphics/SVG/1.1/DTD/svg11.dtd">
<svg version="1.1" xmlns="http://www.w3.org/2000/svg" xmlns:xlink="http://www.w3.org/1999/xlink" x="0" y="0" width="30" height="30" viewBox="0, 0, 30, 30">
  <g id="Layer_1">
    <g>
      <path d="M16.853,17.819 L8.228,17.819 L12.009,6.703 L12.03,6.703 L12.578,8.387 L16.853,8.387 L16.853,4.996 C16.351,3.546 16.039,2.649 16.039,2.649 C15.957,2.389 15.857,2.182 15.739,2.029 C15.622,1.878 15.43,1.764 15.161,1.689 C14.891,1.613 9.637,1.613 9.396,1.689 C9.153,1.764 8.978,1.875 8.868,2.019 C8.758,2.164 8.662,2.353 8.579,2.588 C8.579,2.588 0.065,27.179 0.023,27.468 C-0.019,27.758 0.03,27.982 0.168,28.141 C0.306,28.299 4.483,28.381 4.684,28.306 C4.883,28.229 5.028,28.085 5.117,27.954 C5.207,27.823 7.029,22.199 7.029,22.199 L16.853,22.199 L16.853,17.819 z" fill="#000000"/>
      <path d="M23.499,24.22 L17.73,24.22 C18.294,25.883 19.027,28.022 19.077,28.088 C19.16,28.199 19.305,28.285 19.511,28.347 C19.718,28.409 24.298,28.326 24.451,28.181 C24.601,28.037 24.656,27.82 24.616,27.531 C24.606,27.466 24.169,26.177 23.499,24.22 z" fill="#000000"/>
    </g>
    <path d="M29.991,10.745 L23.927,10.745 L23.927,4.682 L19.548,4.682 L19.548,10.745 L13.484,10.745 L13.484,15.125 L19.548,15.125 L19.548,21.189 L23.927,21.189 L23.927,15.125 L29.991,15.125 z" fill="#000000"/>
  </g>
</svg>
