<?xml version="1.0" encoding="UTF-8"?>
<!DOCTYPE svg PUBLIC "-//W3C//DTD SVG 1.1//EN" "http://www.w3.org/Graphics/SVG/1.1/DTD/svg11.dtd">
<svg version="1.1" xmlns="http://www.w3.org/2000/svg" xmlns:xlink="http://www.w3.org/1999/xlink" x="0" y="0" width="30" height="30" viewBox="0, 0, 30, 30">
  <g id="Layer_1">
    <g>
      <path d="M15.963,1.636 C17.632,1.667 17.007,1.624 17.842,1.69 C18.111,1.765 18.303,1.879 18.42,2.03 C18.538,2.183 18.639,2.389 18.72,2.65 C18.72,2.65 19.032,3.547 19.534,4.997 L26.18,24.221 C26.85,26.178 27.288,27.467 27.297,27.532 C27.338,27.821 27.282,28.038 27.132,28.182 C26.98,28.327 22.399,28.41 22.193,28.348 C21.986,28.286 21.841,28.2 21.758,28.089 C21.708,28.023 20.976,25.884 20.411,24.221 L20.401,24.19 L19.757,22.21 L12.596,22.21 L12.596,22.2 L9.711,22.2 C9.711,22.2 7.888,27.824 7.798,27.955 C7.71,28.086 7.565,28.23 7.365,28.306 C7.165,28.382 2.987,28.3 2.85,28.141 C2.712,27.983 2.663,27.758 2.704,27.469 C2.746,27.18 11.261,2.589 11.261,2.589 C11.343,2.354 11.439,2.165 11.55,2.02 C11.659,1.876 11.835,1.765 12.077,1.69 C13.367,1.607 14.671,1.636 15.963,1.636 z M14.712,6.703 L14.691,6.703 L10.909,17.82 L18.328,17.82 C17.305,14.676 16.282,11.532 15.26,8.388 L14.712,6.703 z" fill="#000000"/>
    </g>
  </g>
</svg>
