<?xml version="1.0" encoding="UTF-8"?>
<!DOCTYPE svg PUBLIC "-//W3C//DTD SVG 1.1//EN" "http://www.w3.org/Graphics/SVG/1.1/DTD/svg11.dtd">
<svg version="1.1" xmlns="http://www.w3.org/2000/svg" xmlns:xlink="http://www.w3.org/1999/xlink" x="0" y="0" width="30" height="30" viewBox="0, 0, 30, 30">
  <g id="Layer_1">
    <path d="M21.324,17.844 L8.193,17.844 L11.994,6.672 L12.015,6.672 L12.566,8.364 L18.043,8.364 C16.886,5.024 16.044,2.598 16.044,2.598 C15.961,2.336 15.861,2.128 15.743,1.975 C15.625,1.823 15.432,1.709 15.161,1.632 C14.891,1.556 9.61,1.556 9.368,1.632 C9.125,1.709 8.948,1.82 8.838,1.965 C8.727,2.11 8.631,2.3 8.547,2.536 C8.547,2.536 -0.009,27.25 -0.05,27.541 C-0.092,27.831 -0.044,28.056 0.095,28.215 C0.233,28.375 4.432,28.457 4.633,28.381 C4.833,28.305 4.979,28.16 5.069,28.028 C5.159,27.897 6.989,22.245 6.989,22.245 L17.082,22.245 C17.082,22.245 19.014,28.011 19.096,28.122 C19.18,28.233 19.325,28.34 19.533,28.402 C19.74,28.465 24.344,28.392 24.497,28.247 C24.649,28.101 24.704,27.888 24.662,27.598 C24.645,27.475 23.101,22.987 21.324,17.844 z" fill="#000000"/>
    <path d="M13.476,10.734 L30.065,10.734 L30.065,15.135 L13.476,15.135 z" fill="#000000"/>
  </g>
</svg>
