<?xml version="1.0" encoding="UTF-8"?>
<!DOCTYPE svg PUBLIC "-//W3C//DTD SVG 1.1//EN" "http://www.w3.org/Graphics/SVG/1.1/DTD/svg11.dtd">
<svg version="1.1" xmlns="http://www.w3.org/2000/svg" xmlns:xlink="http://www.w3.org/1999/xlink" x="0" y="0" width="502" height="502" viewBox="0, 0, 502, 502">
  <g id="Layer_1">
    <path d="M39.938,163.295 L60.474,183.831 L93.015,216.372 C98.337,221.694 106.965,221.694 112.287,216.372 C117.609,211.05 117.609,202.422 112.287,197.1 L144.196,229.009 C149.518,234.331 158.146,234.331 163.468,229.009 L163.468,229.009 C168.79,223.687 168.79,215.059 163.468,209.737 L173.104,219.373 C178.426,224.695 187.054,224.695 192.376,219.373 C197.698,214.051 197.698,205.423 192.376,200.101 L176.737,184.462 C182.059,189.784 190.687,189.784 196.009,184.462 L196.009,184.462 C201.331,179.14 201.331,170.512 196.009,165.19 L138.227,107.408 L138.164,107.208 L162.204,111.165 C174.631,113.061 180.433,106.149 180.433,98.623 L180.433,98.623 C180.433,91.097 176.537,85.459 165.9,82.826 L102.213,62.69 L102.208,62.704 L95.372,61.444 C92.101,60.841 86.987,58.816 80.986,56.237 C48.779,71.193 24.161,99.725 14.483,134.487 C26.652,151.086 39.938,163.295 39.938,163.295 z" fill="#8A501F"/>
    <g>
      <path d="M492,167.421 C492,99.75 437.142,44.892 369.471,44.892 C312.629,44.892 264.843,83.603 251,136.095 C237.156,83.603 189.37,44.892 132.529,44.892 C114.116,44.892 96.655,48.961 80.986,56.238 C86.987,58.817 92.102,60.842 95.372,61.445 L102.208,62.705 L102.213,62.691 L165.9,82.827 C176.536,85.46 180.433,91.098 180.433,98.624 L180.433,98.624 C180.433,106.15 174.631,113.061 162.204,111.166 L138.164,107.209 L138.227,107.409 L196.009,165.191 C201.331,170.513 201.331,179.141 196.009,184.463 L196.009,184.463 C190.687,189.785 182.059,189.785 176.737,184.463 L192.376,200.102 C197.698,205.424 197.698,214.052 192.376,219.374 C187.054,224.696 178.426,224.696 173.104,219.374 L163.468,209.738 C168.79,215.06 168.79,223.688 163.468,229.01 L163.468,229.01 C158.146,234.332 149.518,234.332 144.196,229.01 L112.287,197.101 C117.609,202.423 117.609,211.051 112.287,216.373 C106.965,221.695 98.337,221.695 93.015,216.373 L60.473,183.83 L39.937,163.294 C39.937,163.294 26.651,151.086 14.482,134.488 C11.565,144.968 10,156.011 10,167.421 C10,235.092 84.678,295.655 132.529,343.505 C192.17,403.146 251,457.108 251,457.108 C251,457.108 306.062,406.364 359.583,353.345 C330.822,363.948 303.705,337.062 303.705,337.062 L283.169,316.526 L250.628,283.985 C245.306,278.663 245.306,270.035 250.628,264.713 C255.95,259.391 264.578,259.391 269.9,264.713 L237.991,232.804 C232.669,227.482 232.669,218.854 237.991,213.532 C243.313,208.21 251.941,208.21 257.263,213.532 L247.627,203.896 C242.305,198.574 242.305,189.946 247.627,184.624 L247.627,184.624 C252.949,179.302 261.577,179.302 266.899,184.624 L282.538,200.263 C277.216,194.941 277.216,186.313 282.538,180.991 C287.86,175.669 296.488,175.669 301.81,180.991 L359.591,238.773 L359.791,238.836 L355.834,214.796 C353.938,202.369 360.85,196.567 368.376,196.567 L368.376,196.567 C375.902,196.567 381.54,200.463 384.173,211.1 L404.309,274.787 L404.295,274.792 L405.555,281.628 C407.21,290.605 408.504,299.74 406.355,307.715 C448.312,266.78 492,219.18 492,167.421 z" fill="#E91E63"/>
      <path d="M405.555,281.628 L404.295,274.792 L404.309,274.787 L384.173,211.1 C381.54,200.464 375.902,196.567 368.376,196.567 L368.376,196.567 C360.85,196.567 353.938,202.369 355.834,214.796 L359.791,238.836 L359.591,238.773 L301.81,180.991 C296.488,175.669 287.86,175.669 282.538,180.991 C277.216,186.313 277.216,194.941 282.538,200.263 L266.899,184.624 C261.577,179.302 252.949,179.302 247.627,184.624 L247.627,184.624 C242.305,189.946 242.305,198.574 247.627,203.896 L257.263,213.532 C251.941,208.21 243.313,208.21 237.991,213.532 C232.669,218.854 232.669,227.482 237.991,232.804 L269.9,264.713 C264.578,259.391 255.95,259.391 250.628,264.713 C245.306,270.035 245.306,278.663 250.628,283.985 L283.169,316.526 L303.705,337.062 C303.705,337.062 330.822,363.948 359.583,353.345 C362.889,350.07 366.19,346.786 369.471,343.505 C380.722,332.254 393.457,320.299 406.355,307.715 C408.505,299.74 407.21,290.605 405.555,281.628 z" fill="#EBD2B4"/>
    </g>
    <g>
      <path d="M244.24,464.478 C246.152,466.232 248.576,467.108 251,467.108 C253.432,467.108 255.862,466.226 257.776,464.462 L398.142,329.554 C444.414,285.08 502,229.73 502,167.421 C502,94.344 442.548,34.892 369.472,34.892 C318.636,34.892 273.114,63.89 251,107.956 C228.887,63.89 183.364,34.892 132.528,34.892 C59.452,34.892 0,94.344 0,167.421 C0,229.731 57.586,285.08 103.857,329.554 L244.24,464.478 z M128.63,110.224 L128.693,110.425 C129.176,111.955 130.021,113.346 131.156,114.481 L188.937,172.262 C190.351,173.676 190.351,175.978 188.938,177.391 C187.521,178.807 185.221,178.805 183.806,177.391 C183.802,177.387 183.798,177.384 183.794,177.38 C183.79,177.376 183.787,177.371 183.783,177.367 L143.047,136.905 C139.129,133.013 132.796,133.034 128.905,136.952 C125.012,140.87 125.034,147.202 128.953,151.094 L169.658,191.525 C169.661,191.528 169.663,191.53 169.665,191.533 L185.305,207.172 C186.229,208.096 186.368,209.176 186.368,209.736 C186.368,210.297 186.229,211.377 185.305,212.301 C184.381,213.225 183.302,213.363 182.741,213.363 C182.18,213.363 181.1,213.225 180.177,212.3 L170.541,202.664 L120.939,153.062 C117.033,149.157 110.703,149.157 106.796,153.062 C102.891,156.967 102.891,163.299 106.796,167.205 L156.398,216.807 L156.409,216.817 C157.812,218.232 157.809,220.525 156.399,221.936 C154.984,223.349 152.683,223.351 151.268,221.936 L119.359,190.027 L119.359,190.027 L96.61,167.281 C92.705,163.376 86.375,163.376 82.467,167.281 C78.562,171.186 78.562,177.518 82.467,181.423 L105.209,204.166 C105.211,204.168 105.212,204.169 105.214,204.171 L105.226,204.183 C106.14,205.105 106.278,206.177 106.278,206.736 C106.278,207.297 106.139,208.376 105.215,209.301 C104.29,210.225 103.211,210.363 102.651,210.363 C102.091,210.363 101.011,210.225 100.087,209.3 L47.01,156.223 C46.824,156.037 46.631,155.859 46.431,155.689 C46.285,155.564 31.813,142.785 31.194,127.084 C30.864,118.71 34.488,110.856 42.272,103.072 L65.263,80.081 C72.673,72.67 83.25,69.376 93.56,71.28 L99.905,72.449 L162.886,92.362 C163.088,92.426 163.292,92.484 163.498,92.534 C170.434,94.251 170.434,96.474 170.434,98.624 C170.434,99.144 170.342,100.094 169.728,100.622 C168.978,101.266 167.018,101.775 163.763,101.288 L139.789,97.341 C136.362,96.777 132.883,98.033 130.606,100.661 C128.329,103.289 127.581,106.909 128.63,110.224 z M260.265,270.722 C260.827,270.722 261.906,270.86 262.829,271.784 L262.829,271.784 C262.831,271.786 262.832,271.787 262.834,271.789 L285.576,294.531 C287.529,296.484 290.088,297.46 292.647,297.46 C295.206,297.46 297.765,296.483 299.718,294.531 C303.623,290.626 303.623,284.294 299.718,280.389 L276.971,257.641 L276.971,257.641 L245.062,225.732 C243.648,224.317 243.648,222.016 245.061,220.602 C246.475,219.19 248.774,219.187 250.191,220.6 L250.192,220.601 L299.793,270.203 C301.746,272.156 304.305,273.132 306.864,273.132 C309.423,273.132 311.982,272.155 313.935,270.203 C317.84,266.298 317.84,259.966 313.935,256.061 L264.334,206.459 C264.332,206.457 264.331,206.456 264.329,206.454 L254.697,196.823 C253.283,195.408 253.283,193.107 254.696,191.693 C256.111,190.28 258.412,190.278 259.827,191.693 L275.436,207.302 C275.44,207.306 275.445,207.311 275.449,207.315 L314.903,247.043 C316.858,249.012 319.427,249.997 321.999,249.997 C324.547,249.997 327.095,249.029 329.046,247.093 C332.964,243.201 332.986,236.869 329.095,232.951 L289.633,193.214 C289.63,193.211 289.626,193.208 289.622,193.204 C289.617,193.199 289.613,193.194 289.608,193.189 L289.596,193.177 C288.682,192.255 288.544,191.183 288.544,190.624 C288.544,190.062 288.683,188.983 289.607,188.059 C290.531,187.135 291.61,186.997 292.171,186.997 C292.732,186.997 293.812,187.135 294.735,188.06 L352.517,245.842 C353.656,246.98 355.051,247.826 356.587,248.31 L356.787,248.373 C360.1,249.415 363.718,248.664 366.341,246.388 C368.965,244.112 370.22,240.637 369.655,237.21 L365.708,213.234 C365.22,209.98 365.73,208.021 366.374,207.272 C366.901,206.658 367.853,206.566 368.372,206.566 C370.521,206.566 372.745,206.566 374.462,213.502 C374.513,213.708 374.57,213.912 374.634,214.114 L394.547,277.092 L395.718,283.44 C397.617,293.748 394.327,304.326 386.916,311.737 L363.924,334.729 C356.464,342.189 348.941,345.827 340.956,345.827 C340.643,345.827 340.328,345.821 340.015,345.81 C324.214,345.248 311.411,330.687 311.307,330.568 C311.137,330.368 310.958,330.175 310.773,329.99 L257.696,276.913 C256.772,275.989 256.634,274.909 256.634,274.348 C256.634,273.787 256.772,272.708 257.697,271.783 C258.624,270.86 259.703,270.722 260.265,270.722 z M415.963,283.982 C415.822,282.592 415.645,281.202 415.389,279.815 L414.234,273.549 C414.16,272.956 414.031,272.362 413.844,271.773 L393.797,208.373 C388.963,189.411 375.812,186.568 368.375,186.568 C361.653,186.568 355.396,189.365 351.206,194.242 C348.479,197.416 345.563,202.652 345.512,210.553 L308.88,173.922 C304.418,169.459 298.484,167.002 292.173,167.002 C285.862,167.002 279.928,169.46 275.467,173.922 C274.592,174.797 273.794,175.728 273.076,176.707 C263.811,168.352 249.474,168.636 240.555,177.556 C233.688,184.424 231.94,194.501 235.312,203.003 C233.748,203.958 232.271,205.112 230.919,206.463 C221.708,215.675 221.708,230.664 230.919,239.877 L246.315,255.273 C245.345,255.985 244.423,256.776 243.557,257.643 C239.093,262.105 236.636,268.039 236.636,274.35 C236.636,280.662 239.093,286.595 243.556,291.058 L296.407,343.909 C298.741,346.529 313.152,361.855 333.266,365.184 C297.961,399.616 264.808,430.634 250.987,443.485 C233.838,427.587 186.723,383.56 139.598,336.435 C132.726,329.563 125.434,322.555 117.715,315.136 C74.182,273.29 20,221.213 20,167.421 C20,163.467 20.208,159.561 20.607,155.711 C25.836,163.874 31.579,169.244 33.091,170.591 L85.943,223.442 C90.405,227.905 96.339,230.363 102.65,230.363 C108.961,230.363 114.895,227.905 119.356,223.443 C120.223,222.576 121.015,221.654 121.727,220.684 L137.124,236.081 C141.729,240.687 147.78,242.99 153.83,242.99 C159.881,242.99 165.932,240.687 170.538,236.081 C171.887,234.733 173.038,233.26 173.991,231.7 C176.737,232.793 179.694,233.365 182.738,233.365 C189.05,233.365 194.983,230.907 199.444,226.445 C203.908,221.983 206.366,216.049 206.366,209.737 C206.366,203.837 204.218,198.267 200.292,193.921 C201.267,193.209 202.199,192.414 203.079,191.534 C212.29,182.322 212.29,167.333 203.079,158.121 L166.446,121.488 C174.346,121.436 179.584,118.52 182.758,115.794 C187.635,111.605 190.432,105.347 190.432,98.625 C190.432,91.188 187.589,78.038 168.628,73.203 L115.028,56.256 C120.732,55.361 126.576,54.893 132.528,54.893 C183.584,54.893 228.325,89.334 241.331,138.647 C242.488,143.038 246.459,146.097 251,146.097 C255.541,146.097 259.512,143.038 260.669,138.647 C273.675,89.334 318.416,54.893 369.472,54.893 C431.52,54.892 482,105.373 482,167.421 C482,208.546 450.332,248.668 415.963,283.982 z" fill="#000000"/>
      <path d="M459,156 C453.478,156 449,160.477 449,166 C449,175.154 447.47,184.127 444.45,192.668 C442.61,197.876 445.34,203.588 450.547,205.429 C451.649,205.819 452.773,206.004 453.879,206.004 C457.998,206.004 461.857,203.439 463.308,199.334 C467.085,188.646 469,177.431 469,166 C469,160.477 464.522,156 459,156 z" fill="#000000"/>
      <path d="M453.879,146.003 C454.984,146.003 456.109,145.818 457.211,145.429 C462.418,143.588 465.148,137.875 463.308,132.668 C449.214,92.792 411.314,66 369,66 C346.495,66 325.24,73.301 307.534,87.115 C303.18,90.512 302.404,96.796 305.801,101.15 C309.199,105.505 315.483,106.28 319.837,102.883 C333.995,91.838 350.995,86 369,86 C402.854,86 433.176,107.433 444.45,139.333 C445.901,143.438 449.76,146.003 453.879,146.003 z" fill="#000000"/>
      <path d="M150.988,293.348 C147.037,289.487 140.706,289.562 136.847,293.512 C132.987,297.462 133.061,303.794 137.011,307.653 L153.01,323.285 C154.955,325.186 157.477,326.133 159.997,326.133 C162.596,326.133 165.191,325.127 167.15,323.122 C171.01,319.172 170.936,312.84 166.986,308.981 L150.988,293.348 z" fill="#000000"/>
      <path d="M177.848,333.571 C173.988,337.522 174.062,343.853 178.012,347.713 L246.012,414.153 C247.957,416.053 250.479,417 252.999,417 C255.598,417 258.193,415.994 260.152,413.989 C264.012,410.038 263.938,403.707 259.988,399.847 L191.988,333.407 C188.037,329.547 181.706,329.621 177.848,333.571 z" fill="#000000"/>
    </g>
  </g>
</svg>
