<?xml version="1.0" encoding="UTF-8"?>
<!DOCTYPE svg PUBLIC "-//W3C//DTD SVG 1.1//EN" "http://www.w3.org/Graphics/SVG/1.1/DTD/svg11.dtd">
<svg version="1.1" xmlns="http://www.w3.org/2000/svg" xmlns:xlink="http://www.w3.org/1999/xlink" x="0" y="0" width="100" height="100" viewBox="0, 0, 100, 100">
  <g id="Layer_1">
    <path d="M35.283,38.275 L35.773,38.545 L35.913,39.085 C37.193,44.085 39.913,47.015 43.383,47.015 C46.853,47.015 49.563,44.125 50.853,39.085 L50.993,38.545 L51.493,38.275 C52.493,37.735 53.023,36.455 53.023,34.575 C53.124,33.629 52.698,32.703 51.913,32.165 L51.403,31.875 L51.283,31.295 C50.493,27.365 47.613,25.115 43.383,25.115 C39.153,25.115 36.273,27.365 35.483,31.295 L35.363,31.875 L34.853,32.165 C34.072,32.706 33.65,33.631 33.753,34.575 C33.753,36.455 34.283,37.735 35.283,38.275 z" fill="#000000"/>
    <path d="M57.113,51.005 L50.203,48.195 L36.833,48.195 L29.653,51.005 C29.079,51.241 28.691,51.785 28.653,52.405 L28.653,60.805 C28.653,61.357 29.101,61.805 29.653,61.805 L57.003,61.805 C57.555,61.805 58.003,61.357 58.003,60.805 L58.003,52.415 C57.981,51.819 57.641,51.281 57.113,51.005 z" fill="#000000"/>
    <path d="M68.325,18.394 C54.79,4.818 32.938,4.494 19.007,17.662 C5.077,30.83 4.121,52.714 16.848,67.053 C29.576,81.391 51.372,82.984 66.04,70.648 L87.338,91.995 L91.897,87.426 L70.579,66.068 C82.199,51.97 81.223,31.327 68.325,18.394 z M63.676,63.908 C52.421,75.188 34.175,75.187 22.921,63.906 C11.667,52.625 11.667,34.336 22.921,23.055 C34.175,11.774 52.421,11.773 63.676,23.053 C74.933,34.334 74.933,52.627 63.676,63.908 z" fill="#000000"/>
  </g>
</svg>
