<?xml version="1.0" encoding="UTF-8"?>
<!DOCTYPE svg PUBLIC "-//W3C//DTD SVG 1.1//EN" "http://www.w3.org/Graphics/SVG/1.1/DTD/svg11.dtd">
<svg version="1.1" xmlns="http://www.w3.org/2000/svg" xmlns:xlink="http://www.w3.org/1999/xlink" x="0" y="0" width="502" height="502" viewBox="0, 0, 502, 502">
  <g id="Layer_1">
    <g>
      <path d="M492,251 C492,384.101 384.101,492 251,492 C117.899,492 10,384.101 10,251 C10,117.899 117.899,10 251,10 C384.101,10 492,117.899 492,251 z" fill="#EBD2B4"/>
      <path d="M311.877,154 C282.669,154 258.114,173.892 251,200.865 C243.886,173.892 219.331,154 190.123,154 C155.35,154 127.161,182.189 127.161,216.962 C127.161,251.735 165.535,282.855 190.123,307.443 C220.77,338.09 251,365.818 251,365.818 C251,365.818 282.898,336.422 311.877,307.443 C336.465,282.855 374.839,251.734 374.839,216.962 C374.839,182.19 346.65,154 311.877,154 z" fill="#E91E63"/>
      <g>
        <path d="M502,251 C502,183.956 475.892,120.924 428.484,73.516 C381.076,26.108 318.044,0 251,0 C183.956,0 120.924,26.108 73.516,73.516 C26.768,120.264 0.75,182.207 0.034,248.206 C0.012,249.136 0,250.068 0,251 C0,318.044 26.108,381.076 73.516,428.484 C120.924,475.892 183.956,502 251,502 C251.929,502 252.857,501.988 253.784,501.966 C319.787,501.253 381.734,475.234 428.484,428.484 C475.892,381.076 502,318.044 502,251 z M215.761,464.89 C217.584,469.549 219.469,473.761 221.419,477.532 C193.012,468.847 166.738,447.694 145.47,415.858 C142.876,411.975 140.391,407.973 138.006,403.868 C158.413,410.855 180.168,415.907 202.767,418.874 C206.546,436.959 210.93,452.544 215.761,464.89 z M234.386,457.601 C230.492,447.651 226.893,435.29 223.684,420.997 C232.696,421.655 241.809,422 251,422 C260.191,422 269.304,421.655 278.317,420.997 C275.047,435.559 271.373,448.109 267.4,458.145 C259.929,477.015 253.406,482 251,482 C248.556,482 241.939,476.9 234.386,457.601 z M280.625,477.437 C282.472,473.857 284.262,469.887 285.996,465.508 C290.922,453.066 295.396,437.268 299.238,418.873 C321.83,415.907 343.578,410.857 363.979,403.873 C342.017,441.767 312.679,467.526 280.625,477.437 z M303.109,398.139 C303.909,393.353 304.674,388.451 305.393,383.413 C306.173,377.945 302.373,372.881 296.906,372.1 C291.438,371.318 286.374,375.119 285.593,380.587 C284.602,387.53 283.53,394.201 282.391,400.607 C272.073,401.524 261.594,402 251,402 C240.405,402 229.925,401.523 219.606,400.607 C218.36,393.598 217.195,386.265 216.127,378.617 C215.364,373.147 210.311,369.335 204.84,370.096 C199.37,370.86 195.555,375.913 196.319,381.383 C197.122,387.133 197.983,392.713 198.889,398.139 C172.454,394.151 147.402,387.121 124.676,377.323 C114.878,354.597 107.849,329.547 103.861,303.114 C110.236,304.179 116.839,305.177 123.66,306.098 C124.115,306.159 124.566,306.189 125.012,306.189 C129.939,306.189 134.231,302.545 134.909,297.527 C135.649,292.054 131.812,287.017 126.339,286.277 C117.625,285.1 109.298,283.8 101.393,282.396 C100.477,272.076 100,261.596 100,251 C100,188.583 116.148,130.035 145.471,86.142 C166.739,54.306 193.013,33.153 221.42,24.468 C219.47,28.239 217.585,32.45 215.762,37.11 C207.847,57.333 201.125,86.21 196.321,120.617 C195.557,126.087 199.372,131.14 204.842,131.904 C210.311,132.664 215.364,128.853 216.129,123.383 C220.72,90.5 227.034,63.188 234.387,44.399 C241.939,25.1 248.556,20 251,20 C253.444,20 260.061,25.099 267.614,44.399 C271.508,54.349 275.107,66.71 278.316,81.003 C269.304,80.345 260.191,80 251,80 C245.477,80 241,84.477 241,90 C241,95.523 245.477,100 251,100 C261.595,100 272.074,100.477 282.393,101.393 C283.639,108.402 284.804,115.734 285.872,123.383 C286.57,128.384 290.853,132.002 295.763,132.002 C296.223,132.002 296.69,131.97 297.159,131.904 C302.629,131.14 306.444,126.087 305.68,120.617 C304.877,114.867 304.016,109.287 303.11,103.861 C329.545,107.849 354.597,114.879 377.324,124.677 C393.382,161.926 402,205.427 402,251 C402,254.305 401.961,254.779 401.866,255.924 C401.792,256.82 401.691,258.048 401.57,260.507 C401.298,266.023 405.549,270.715 411.066,270.987 C416.573,271.256 421.274,267.008 421.546,261.491 C421.651,259.362 421.733,258.368 421.799,257.569 C421.935,255.921 422.001,254.953 422.001,250.999 C422.001,241.805 421.655,232.688 420.997,223.672 C470.395,234.745 482,247.227 482,251 C482,253.539 476.615,260.389 456.232,268.142 C436.498,275.649 407.955,282.011 373.689,286.542 C368.213,287.266 364.362,292.291 365.086,297.766 C365.751,302.797 370.046,306.456 374.987,306.456 C375.424,306.456 375.866,306.428 376.31,306.369 C412.088,301.639 442.183,294.884 463.343,286.835 C468.626,284.825 473.348,282.739 477.534,280.573 C468.85,308.983 447.696,335.259 415.858,356.529 C384.459,377.505 345.559,391.735 303.109,398.139 z M83.127,202.757 C59.867,207.605 41.182,213.36 27.546,219.892 C26.515,220.386 25.523,220.886 24.55,221.391 C34.451,189.308 60.205,159.972 98.133,138.005 C91.146,158.408 86.094,180.161 83.127,202.757 z M81.003,223.675 C80.345,232.69 80,241.806 80,251 C80,260.193 80.345,269.308 81.003,278.323 C67.104,275.202 55.038,271.71 45.218,267.933 C25.271,260.258 20,253.501 20,251 C20,247.245 31.58,234.755 81.003,223.675 z M38.038,286.599 C50.237,291.292 65.495,295.548 83.126,299.231 C86.093,321.831 91.145,343.587 98.132,363.994 C94.028,361.609 90.025,359.123 86.142,356.53 C54.304,335.261 33.15,308.985 24.466,280.576 C28.488,282.656 33.005,284.662 38.038,286.599 z M286.239,37.11 C284.415,32.45 282.531,28.239 280.581,24.468 C308.988,33.153 335.262,54.306 356.53,86.142 C359.124,90.025 361.609,94.027 363.994,98.132 C343.587,91.144 321.831,86.092 299.232,83.126 C295.454,65.04 291.07,49.456 286.239,37.11 z M403.868,138.006 C407.972,140.391 411.975,142.877 415.858,145.47 C447.697,166.74 468.852,193.017 477.535,221.428 C476.441,220.86 475.312,220.298 474.146,219.744 C460.532,213.271 441.951,207.568 418.874,202.758 C415.906,180.163 410.855,158.41 403.868,138.006 z M462.811,158.873 C452.689,148.093 440.707,138.02 426.967,128.841 C416.216,121.659 404.66,115.222 392.45,109.549 C386.778,97.339 380.341,85.783 373.159,75.032 C363.98,61.292 353.907,49.31 343.127,39.188 C396.541,62.511 439.489,105.458 462.811,158.873 z M158.873,39.188 C148.093,49.31 138.02,61.292 128.841,75.032 C121.653,85.791 115.212,97.357 109.536,109.578 C80.919,122.846 57.123,139.744 39.105,159.063 C62.409,105.56 105.395,62.539 158.873,39.188 z M39.189,343.127 C49.311,353.907 61.293,363.98 75.033,373.159 C85.784,380.341 97.34,386.778 109.55,392.451 C115.222,404.661 121.659,416.217 128.841,426.968 C138.02,440.708 148.093,452.69 158.873,462.812 C105.459,439.489 62.511,396.542 39.189,343.127 z M342.891,462.915 C362.231,444.892 379.148,421.087 392.42,392.465 C404.641,386.789 416.208,380.347 426.967,373.16 C440.707,363.981 452.689,353.908 462.811,343.128 C439.455,396.62 396.415,439.616 342.891,462.915 z" fill="#000000"/>
        <path d="M163.224,110.813 C164.053,110.813 164.896,110.709 165.736,110.492 C169.48,109.523 173.317,108.607 177.142,107.768 C182.537,106.585 185.951,101.252 184.768,95.858 C183.585,90.463 178.248,87.049 172.858,88.232 C168.791,89.124 164.709,90.099 160.725,91.13 C155.378,92.514 152.165,97.97 153.549,103.317 C154.716,107.823 158.775,110.813 163.224,110.813 z" fill="#000000"/>
        <path d="M407.088,312.198 C401.675,311.105 396.399,314.601 395.302,320.015 C393.912,326.881 392.289,333.729 390.479,340.369 C389.026,345.698 392.168,351.195 397.497,352.647 C398.378,352.887 399.263,353.001 400.133,353.001 C404.531,353.001 408.562,350.077 409.775,345.629 C411.701,338.563 413.427,331.28 414.905,323.983 C416,318.571 412.501,313.294 407.088,312.198 z" fill="#000000"/>
        <path d="M311.877,144 C286.889,144 264.233,156.726 251,176.722 C237.767,156.726 215.111,144 190.123,144 C149.892,144 117.162,176.73 117.162,216.962 C117.162,251.05 147.58,280.286 172.021,303.778 C175.932,307.537 179.626,311.088 183.052,314.514 C213.5,344.961 243.937,372.909 244.24,373.187 C246.153,374.941 248.576,375.818 251,375.818 C253.431,375.818 255.863,374.936 257.777,373.172 C258.097,372.877 290.158,343.305 318.948,314.514 C322.373,311.088 326.068,307.537 329.979,303.778 C354.42,280.286 384.838,251.049 384.838,216.962 C384.838,176.73 352.108,144 311.877,144 z M316.12,289.359 C312.135,293.189 308.371,296.806 304.806,300.372 C284.206,320.973 261.892,341.998 250.99,352.177 C240.373,342.286 218.783,321.961 197.195,300.372 C193.63,296.807 189.866,293.189 185.881,289.359 C164.175,268.497 137.162,242.532 137.162,216.962 C137.162,187.759 160.92,164 190.123,164 C214.153,164 235.21,180.208 241.331,203.416 C242.489,207.807 246.46,210.866 251,210.866 C255.54,210.866 259.511,207.807 260.669,203.416 C266.79,180.208 287.847,164 311.877,164 C341.08,164 364.838,187.759 364.838,216.962 C364.838,242.532 337.825,268.497 316.12,289.359 z" fill="#000000"/>
        <path d="M316.98,242.878 L307.98,251.75 C304.047,255.627 304.001,261.958 307.878,265.892 C309.835,267.877 312.417,268.872 315,268.872 C317.535,268.872 320.072,267.914 322.02,265.994 L331.02,257.122 C334.953,253.245 334.999,246.914 331.122,242.98 C327.244,239.046 320.913,239 316.98,242.878 z" fill="#000000"/>
        <path d="M284.516,274.878 L246.98,311.878 C243.047,315.755 243.001,322.086 246.878,326.02 C248.835,328.005 251.417,329 254,329 C256.535,329 259.072,328.042 261.02,326.122 L298.556,289.122 C302.489,285.245 302.535,278.914 298.658,274.98 C294.781,271.046 288.448,271 284.516,274.878 z" fill="#000000"/>
      </g>
    </g>
  </g>
</svg>
